<svg width="38" height="40" viewBox="0 0 38 40" fill="none" xmlns="http://www.w3.org/2000/svg">
<path d="M0 24.0223C0.0106075 24.045 0.0179649 24.069 0.0218654 24.0937C0.0392568 24.3441 0.0844753 24.5919 0.156712 24.8328C0.342375 25.5318 0.68614 26.181 1.16256 26.7322C1.80558 27.4805 2.69487 27.9856 3.67719 28.1604C4.15732 28.2512 4.64842 28.2729 5.13494 28.2247C5.44681 28.2014 5.7524 28.1266 6.03875 28.0033C6.2947 27.8938 6.51835 27.7229 6.68906 27.5064C6.85977 27.2898 6.97202 27.0346 7.01545 26.7644C7.06832 26.4583 7.06832 26.1457 7.01545 25.8396C6.99074 25.6658 6.95298 25.4939 6.90247 25.3255C6.90247 25.3005 6.8806 25.2755 6.86602 25.2362L6.82229 25.2969C6.70626 25.468 6.54841 25.6079 6.3631 25.7039C6.17792 25.8013 5.97694 25.8665 5.76907 25.8967C5.43572 25.9467 5.09656 25.9467 4.76322 25.8967C4.55549 25.8646 4.3514 25.8182 4.15096 25.7682C3.80164 25.6769 3.48181 25.5 3.22164 25.2541C2.95669 25.0039 2.73839 24.7103 2.57658 24.3865C2.36986 23.9858 2.24015 23.5513 2.19392 23.1047C2.14374 22.696 2.18605 22.2815 2.31783 21.8907C2.45365 21.4758 2.73683 21.1224 3.11595 20.8946C3.32899 20.77 3.56377 20.6853 3.80838 20.6446C4.30929 20.5526 4.82542 20.5796 5.31352 20.7232C5.77023 20.8577 6.1793 21.115 6.4943 21.4658C6.6904 21.6767 6.86269 21.9078 7.00816 22.1549C7.22954 22.5274 7.41734 22.918 7.56939 23.3225C7.76619 23.8366 7.95206 24.3508 8.13428 24.8685C8.51493 25.961 8.97782 27.0243 9.51914 28.0497C9.99248 28.9503 10.5552 29.803 11.1992 30.5954C11.9276 31.4956 12.7872 32.286 13.7503 32.9412C14.8774 33.7044 16.1466 34.243 17.4858 34.5265C17.9105 34.6166 18.3399 34.6833 18.7722 34.7264C19.4987 34.7977 20.2294 34.8191 20.9589 34.7907C21.4108 34.7907 21.859 34.7336 22.3073 34.6764C23.1501 34.571 23.9818 34.3929 24.7928 34.1445C26.4049 33.6581 27.9059 32.8713 29.2134 31.8272C30.5681 30.744 31.6766 29.3953 32.4678 27.8676C32.996 26.8487 33.3927 25.7692 33.6486 24.6542C33.7507 24.2115 33.8345 23.7688 33.8964 23.3225C33.9475 22.9654 33.9839 22.6084 34.0131 22.2513C34.0519 21.7134 34.0665 21.1743 34.0568 20.6339C34.0568 20.2019 34.0276 19.7699 33.9876 19.3414V19.1665C33.9548 19.1665 33.9548 19.1915 33.9511 19.2093C33.9256 19.4343 33.9001 19.6592 33.8709 19.8841C33.8272 20.2412 33.7653 20.5768 33.696 20.9231C33.533 21.7475 33.3164 22.5609 33.0473 23.3582C32.6492 24.5608 32.1086 25.7136 31.4365 26.7929C30.8604 27.7243 30.1579 28.5747 29.3483 29.3208C28.0693 30.498 26.5112 31.3447 24.8146 31.7844C24.2949 31.9218 23.7666 32.0256 23.233 32.095C22.4237 32.1997 21.6069 32.2367 20.7912 32.2057C20.3466 32.2057 19.8984 32.1593 19.4537 32.1093C18.5402 32.0158 17.641 31.8168 16.7751 31.5166C15.3586 31.0144 14.0941 30.1708 13.0979 29.0637C12.5787 28.4801 12.1129 27.8528 11.7058 27.1892C11.3231 26.568 10.9769 25.9289 10.6453 25.2826C10.3136 24.6364 10.0184 24.0651 9.70136 23.4617C9.42409 22.9279 9.115 22.4104 8.77569 21.9121C8.46664 21.4495 8.1074 21.0209 7.70423 20.6339C7.16985 20.1192 6.52843 19.7234 5.82373 19.4735C5.40944 19.3287 4.97865 19.234 4.54091 19.1915C3.8128 19.1062 3.07492 19.2246 2.4126 19.5329C1.75027 19.8413 1.19054 20.327 0.798122 20.9338C0.450629 21.4489 0.211504 22.0267 0.0947521 22.6334C0.0650036 22.7588 0.0479145 22.8867 0.0437309 23.0154C0.0374103 23.0434 0.0288839 23.0708 0.018223 23.0975L0 24.0223Z" fill="#B98D58"/>
<path d="M38 33.4626C37.9715 33.4365 37.9545 33.4007 37.9526 33.3626C37.8893 32.963 37.6948 32.5945 37.3986 32.3129C37.2544 32.1658 37.0957 32.033 36.9249 31.9166C36.5637 31.6643 36.1808 31.4433 35.7805 31.256L35.5947 31.1739C35.5947 31.1739 35.5947 31.2025 35.5947 31.206L35.6931 31.2882C36.0123 31.5486 36.3008 31.8432 36.5531 32.1665C36.6984 32.3439 36.8208 32.5382 36.9176 32.7449C36.9711 32.8588 37.0103 32.9787 37.0342 33.1019C37.0779 33.3813 37.0361 33.6671 36.9139 33.9231C36.8236 34.131 36.7007 34.3238 36.5495 34.4944C36.3062 34.7757 36.0284 35.0263 35.7222 35.2406C35.2632 35.5609 34.7752 35.8393 34.2645 36.0725C33.6101 36.3793 32.9356 36.6429 32.2455 36.8616C31.3617 37.1475 30.4626 37.3859 29.5523 37.5757C29.0348 37.6828 28.5173 37.7828 27.9961 37.8649C27.5624 37.9363 27.1251 37.9934 26.6914 38.0506C26.3598 38.097 26.0318 38.1327 25.7001 38.1684C25.4706 38.1934 25.241 38.2077 25.0114 38.2291L24.1549 38.2898L23.5682 38.3219L22.1979 38.3612C21.3633 38.379 20.5324 38.3612 19.6978 38.3433C19.2824 38.3433 18.8633 38.3183 18.4442 38.2933C18.0251 38.2684 17.5076 38.2362 17.0411 38.2041C16.6766 38.1791 16.3414 38.1541 15.9951 38.1184C15.6489 38.0827 15.2663 38.047 14.9237 38.0041C14.5811 37.9613 14.213 37.922 13.8595 37.8685C13.3639 37.7935 12.8719 37.7114 12.3799 37.6292C11.7677 37.5257 11.159 37.3936 10.5577 37.2472C9.57857 37.0175 8.61857 36.7155 7.68594 36.3439C7.24442 36.1654 6.81687 35.9554 6.40676 35.7155C6.18755 35.585 5.97807 35.4395 5.77993 35.2799C5.60679 35.143 5.45136 34.986 5.31709 34.8122C5.196 34.6595 5.1102 34.4828 5.06563 34.2945C5.02333 34.0635 5.03833 33.8259 5.10936 33.6018C5.2011 33.313 5.35805 33.0482 5.56855 32.827C5.74812 32.6291 5.95122 32.4528 6.17352 32.3022C6.56436 32.0331 6.98194 31.8034 7.4199 31.6166C8.0298 31.3556 8.6583 31.1384 9.30041 30.9668C9.59925 30.8847 9.89444 30.8169 10.1933 30.7419C10.2301 30.7331 10.2648 30.7174 10.2953 30.6955C10.1167 30.6955 9.93089 30.7133 9.75596 30.7276C9.58103 30.7419 9.43525 30.7526 9.27125 30.7633C8.87401 30.7954 8.47313 30.8383 8.07589 30.8883C7.61306 30.9454 7.15751 31.0239 6.70196 31.1203C6.09909 31.2477 5.51155 31.4368 4.94901 31.6845C4.56394 31.8477 4.2054 32.0655 3.88485 32.3307C3.34008 32.7784 2.98106 33.4057 2.87535 34.0945C2.8371 34.3223 2.81881 34.5528 2.82069 34.7836C2.81973 35.2389 2.94575 35.6858 3.18513 36.0761C3.40106 36.4331 3.67706 36.7518 4.00147 37.0187C4.35335 37.3108 4.7357 37.5657 5.14216 37.7792C5.73382 38.0882 6.35062 38.3485 6.98622 38.5576C7.75404 38.812 8.53651 39.0218 9.32956 39.186C9.86164 39.3002 10.401 39.3966 10.9404 39.4823C11.3267 39.5394 11.7166 39.593 12.1029 39.643C12.4892 39.693 12.9339 39.7394 13.3493 39.7822C13.7138 39.8179 14.0381 39.8429 14.3843 39.8679C14.7305 39.8929 15.0148 39.9108 15.3282 39.9322C15.5287 39.9322 15.7291 39.9536 15.9295 39.9607L17.0046 40C17.0556 39.9965 17.1067 39.9965 17.1577 40H20.3866C20.4564 39.9804 20.5292 39.9731 20.6016 39.9786C21.1082 39.9572 21.6148 39.9429 22.1214 39.9179C22.5295 39.8929 22.9304 39.8608 23.3349 39.8251C23.7395 39.7894 24.1112 39.7608 24.4939 39.7144C24.9858 39.6573 25.4778 39.593 25.9516 39.5251C26.5529 39.443 27.1506 39.3395 27.7446 39.2252C28.7869 39.0253 29.8183 38.7861 30.8387 38.4897C31.8925 38.1925 32.9239 37.8238 33.9255 37.3865C34.6023 37.0945 35.2532 36.7482 35.8716 36.351C36.3166 36.0703 36.7285 35.7422 37.0998 35.3727C37.2897 35.1804 37.4594 34.9699 37.6064 34.7443C37.7817 34.4804 37.8996 34.1838 37.9526 33.8731C37.9527 33.8541 37.9569 33.8353 37.9651 33.8181C37.9733 33.8008 37.9852 33.7855 38 33.7732V33.4626Z" fill="#B98D58"/>
<path d="M31.7571 15.3568L31.8446 15.4354C32.0521 15.6119 32.2413 15.808 32.4095 16.0209C32.4995 16.1414 32.5787 16.2692 32.6463 16.403C32.7025 16.5133 32.7339 16.6341 32.7383 16.7573C32.7427 16.8805 32.7201 17.0032 32.6718 17.1171C32.6106 17.2735 32.5204 17.4175 32.4058 17.5419C32.2796 17.6753 32.1391 17.795 31.9867 17.899C31.6689 18.1186 31.3281 18.3041 30.9699 18.4524C30.4272 18.6766 29.8681 18.8604 29.2971 19.0023C28.6967 19.1594 28.0885 19.2869 27.4749 19.3843C27.034 19.4521 26.5894 19.52 26.1447 19.5735C25.7803 19.6199 25.4159 19.6521 25.0514 19.6842C24.687 19.7163 24.2424 19.7449 23.8378 19.7735C23.6556 19.7735 23.4734 19.7949 23.2875 19.802C22.3801 19.8377 21.4654 19.8484 20.5579 19.827C20.0987 19.827 19.6395 19.7877 19.1767 19.7592C18.8122 19.7378 18.4478 19.7128 18.0834 19.6771C17.7189 19.6414 17.2962 19.5878 16.9026 19.5378C16.2211 19.4486 15.5432 19.3272 14.8763 19.1808C14.0586 19.0111 13.2575 18.7721 12.4819 18.4667C12.1616 18.3372 11.8511 18.1856 11.5526 18.0132C11.3472 17.8948 11.1522 17.7598 10.9695 17.6098C10.8083 17.4781 10.666 17.3256 10.5468 17.1563C10.4346 16.9971 10.3599 16.8154 10.3281 16.6243C10.2978 16.4336 10.3218 16.2384 10.3973 16.0602C10.455 15.9199 10.5336 15.7887 10.6306 15.671C10.795 15.4725 10.9877 15.2982 11.2028 15.1533C11.5558 14.9105 11.9345 14.7058 12.3325 14.5428C12.9174 14.2982 13.5205 14.0977 14.1365 13.9429L14.818 13.7787C14.8457 13.7673 14.8754 13.7615 14.9055 13.7615C14.9355 13.7615 14.9652 13.7673 14.9929 13.7787C15.5587 14.073 16.0913 14.4249 16.5819 14.8284C17.0131 15.1827 17.3824 15.6036 17.6752 16.0745C17.6752 16.1031 17.7043 16.1352 17.7371 16.1495C17.7699 16.1638 17.7554 16.0923 17.7554 16.0674C17.7405 15.8084 17.6903 15.5527 17.6059 15.3069C17.4434 14.8162 17.1969 14.3562 16.8771 13.9465C16.4884 13.4455 16.0296 13.0008 15.5141 12.6255C15.3464 12.5005 15.1715 12.3791 14.9929 12.2684C14.0172 11.6281 13.0958 10.9117 12.2378 10.1262C11.727 9.66276 11.2576 9.15749 10.8347 8.61586C10.5761 8.28309 10.355 7.92397 10.175 7.54473C10.0553 7.29401 9.97071 7.02859 9.92357 6.75566C9.84341 6.33531 9.93081 5.90085 10.1678 5.54172C10.1803 5.52484 10.1912 5.50692 10.2005 5.48816C10.2005 5.48816 10.175 5.48816 10.1714 5.48816C9.60934 5.91855 9.1783 6.49149 8.92501 7.14484C8.76284 7.5659 8.7078 8.01932 8.76466 8.4659C8.81792 8.85656 8.94131 9.2349 9.1291 9.58345C9.33553 9.96987 9.59016 10.3297 9.88713 10.6546C10.3216 11.1271 10.8179 11.5413 11.3631 11.8864C11.8641 12.2061 12.385 12.4947 12.9229 12.7504L14.5519 13.5431C14.6291 13.5766 14.7034 13.616 14.7743 13.6609C14.7743 13.6966 14.7305 13.6894 14.7087 13.6966H14.6467C13.694 13.8094 12.7477 13.9691 11.8114 14.175C11.0516 14.3351 10.3058 14.5536 9.581 14.8284C9.21037 14.9672 8.85201 15.1355 8.50955 15.3318C8.27255 15.4673 8.05136 15.6278 7.84992 15.8103C7.70836 15.9395 7.58572 16.0873 7.48548 16.2495C7.35394 16.4444 7.27755 16.6701 7.26411 16.9034C7.25066 17.1368 7.30064 17.3694 7.40895 17.5776C7.50315 17.7694 7.62597 17.9463 7.77338 18.1025C7.9743 18.3149 8.19927 18.5042 8.44395 18.6666C8.87108 18.9473 9.32513 19.1864 9.79966 19.3807C10.4838 19.6701 11.1892 19.9088 11.9098 20.0948C12.6386 20.2948 13.3675 20.4518 14.1183 20.5804C14.6248 20.6696 15.1314 20.7482 15.638 20.8053C16.0279 20.8517 16.4179 20.891 16.8078 20.9303C17.2852 20.9803 17.7627 21.0053 18.2401 21.0338C19.3917 21.0981 20.5433 21.0981 21.6986 21.0695C22.2307 21.0695 22.7628 21.0303 23.2948 20.9946C23.754 20.966 24.2059 20.9267 24.6615 20.8803C25.117 20.8339 25.4669 20.7982 25.8714 20.7446C26.2759 20.6911 26.706 20.6232 27.1214 20.5554C27.679 20.4661 28.2148 20.3519 28.776 20.2233C29.5988 20.0351 30.4055 19.7844 31.1886 19.4736C31.657 19.2902 32.1052 19.0605 32.5261 18.788C32.7402 18.6487 32.9392 18.4884 33.1201 18.3096C33.2521 18.1783 33.366 18.0306 33.459 17.8704C33.5887 17.6472 33.6471 17.391 33.6267 17.1349C33.6095 16.969 33.56 16.8078 33.4809 16.66C33.3843 16.4816 33.2615 16.318 33.1165 16.1745C32.9569 16.0173 32.7838 15.8739 32.599 15.746C32.3664 15.5848 32.1229 15.4392 31.8701 15.3104L31.8045 15.2819L31.7571 15.3568Z" fill="#B98D58"/>
<path d="M22.4203 16.8279C22.4203 16.7529 22.4459 16.6779 22.4495 16.6029C22.4678 16.311 22.4568 16.018 22.4167 15.7282C22.2767 14.7141 21.919 13.7406 21.3671 12.8718C20.9383 12.1759 20.4283 11.5313 19.8474 10.9509C19.6287 10.7296 19.3991 10.5153 19.1695 10.3047C18.324 9.52632 17.5077 8.72654 16.7351 7.88035C16.0658 7.15815 15.4473 6.39232 14.8837 5.58813C14.5117 5.06161 14.1862 4.50499 13.9107 3.92431C13.7207 3.523 13.5753 3.10284 13.477 2.67108C13.4043 2.35982 13.3749 2.04034 13.3895 1.72135C13.4071 1.14847 13.6201 0.59787 13.9945 0.157497L14.0601 0.0789471L14.1184 0.011108C14.0966 -0.013885 14.082 0.011108 14.0674 0.011108C13.8768 0.145712 13.6954 0.292415 13.5244 0.450273C12.8974 1.01195 12.4004 1.69856 12.0666 2.464C11.8749 2.92015 11.7521 3.40128 11.7022 3.89217C11.6265 4.61115 11.6883 5.33764 11.8844 6.03443C12.1523 7.05918 12.6406 8.01601 13.3167 8.84079C13.7121 9.31861 14.1566 9.75532 14.6432 10.144C15.1289 10.5319 15.6389 10.8897 16.1702 11.2151C16.7132 11.5722 17.2635 11.8899 17.8065 12.222C18.3496 12.554 18.9254 12.9147 19.4611 13.2931C19.9376 13.6316 20.386 14.0065 20.8022 14.4142C21.476 15.0726 22.0077 15.857 22.3657 16.7207C22.3839 16.7779 22.3875 16.8136 22.4203 16.8279Z" fill="#B98D58"/>
<path d="M25.332 13.95C25.332 13.8501 25.332 13.7501 25.332 13.6501C25.2988 13.0561 25.176 12.4701 24.9676 11.9113C24.6742 11.1269 24.2287 10.4055 23.6556 9.78692C23.448 9.55968 23.2252 9.34617 22.9887 9.14781C22.2783 8.5447 21.6111 7.89455 20.9916 7.20192C20.6175 6.78308 20.2752 6.33797 19.9675 5.87015C19.7234 5.49721 19.5206 5.09983 19.3625 4.68477C19.2626 4.42147 19.1977 4.14667 19.1694 3.86714C19.1427 3.61867 19.167 3.36749 19.2409 3.12836C19.3147 2.88923 19.4366 2.66698 19.5994 2.47467L19.6869 2.37112C19.6577 2.37112 19.6432 2.37112 19.6249 2.37112C19.0629 2.68483 18.5797 3.11794 18.2109 3.63863C17.9778 3.97008 17.8188 4.34605 17.7444 4.74189C17.6941 5.01044 17.6855 5.28489 17.7189 5.55595C17.781 6.03468 17.9382 6.49684 18.1818 6.91629C18.4782 7.43887 18.846 7.91936 19.2751 8.34446C19.7031 8.77814 20.1676 9.17585 20.6636 9.53342C21.1519 9.89046 21.6512 10.2475 22.1469 10.5867C22.6425 10.9259 23.0907 11.2615 23.5317 11.6578C23.9561 12.0152 24.3386 12.4175 24.6724 12.8575C24.9085 13.1759 25.1089 13.5182 25.2701 13.8786C25.2812 13.9093 25.2946 13.9391 25.3102 13.9679L25.332 13.95Z" fill="#B98D58"/>
</svg>
