<svg width="57" height="51" viewBox="0 0 57 51" fill="none" xmlns="http://www.w3.org/2000/svg">
<path d="M0 33.8836C0.0887049 33.2058 0.1644 32.5257 0.267297 31.8502C1.02188 26.8684 3.16144 22.5133 6.51685 18.7395C9.52927 15.3517 13.1638 12.9044 17.7055 11.9243C19.1627 11.6049 20.6646 11.5322 22.1467 11.7092C22.9911 11.8115 22.9746 11.8255 23.1674 10.9931C24.0284 7.15648 26.162 4.17208 29.5411 2.12938C32.4897 0.347112 35.7351 0.0936645 39.0692 0.838893C43.1295 1.74572 46.4648 3.89305 49.2939 6.82049C52.2673 9.8979 54.4057 13.4822 55.5624 17.5769C56.848 22.1366 57.0526 26.7254 55.2017 31.1933C53.3211 35.7275 49.929 38.5689 44.9202 39.2781C42.2212 39.6594 39.6168 39.0758 37.1141 38.0899C35.3802 37.4098 33.8108 36.446 32.3122 35.2334C32.194 35.5066 32.0982 35.7298 32.0047 35.9542C30.1431 40.4209 27.3294 44.1749 23.327 47.0059C20.162 49.2439 16.673 50.61 12.7002 50.4809C8.67889 50.346 5.51271 48.5812 3.10467 45.4817C1.23241 43.0728 0.36783 40.2802 0.11236 37.2854C0.0958014 37.09 0.0437611 36.8982 0.00827909 36.7041L0 33.8836ZM27.8522 16.1946C27.8131 16.4085 27.7859 16.5631 27.7564 16.7166C27.7221 16.8945 27.6984 17.0747 27.6499 17.2479C26.848 20.166 25.0148 22.1308 22.0993 23.1458C18.9746 24.2316 17.3341 27.0916 17.8415 30.2993C18.0024 31.32 18.0781 32.4094 17.9066 33.4174C17.3389 36.6552 15.3601 38.7758 12.2129 39.8512C11.0214 40.2521 9.97757 40.9913 9.21348 41.9753C7.9728 43.5448 7.74689 45.3213 8.08043 47.207C8.10408 47.343 8.28504 47.493 8.43524 47.5628C10.8598 48.7451 13.4027 48.9172 16.0047 48.3324C20.0142 47.4337 23.1981 45.2073 25.864 42.2264C29.1496 38.5514 31.1863 34.2847 31.8368 29.4192C32.3099 25.8884 31.9551 22.4587 30.2531 19.2452C29.6495 18.0925 28.8357 17.0584 27.8522 16.1946ZM50.5985 34.68C50.7276 34.5839 50.8465 34.4753 50.9533 34.3556C51.6322 33.4383 52.4199 32.5756 52.9485 31.5805C54.7723 28.1415 54.9923 24.4583 54.356 20.7055C53.618 16.3492 51.7327 12.487 48.8539 9.11431C46.3702 6.2078 43.3767 3.9849 39.6286 2.87578C36.7085 2.01196 33.8332 2.08404 31.0384 3.39546C30.7238 3.54311 30.5772 3.71634 30.5653 4.08372C30.5038 5.33817 30.8445 6.47403 31.4926 7.53898C32.4021 9.03292 33.8143 9.81768 35.4287 10.4129C37.2087 11.0759 38.6957 12.3317 39.6304 13.9617C40.5652 15.5916 40.8885 17.4922 40.5441 19.3324C40.2921 20.695 40.2898 22.0273 40.8527 23.319C41.6251 25.0931 42.9367 26.3081 44.8019 26.9231C47.4193 27.7927 49.1685 29.5401 50.0674 32.0792C50.356 32.9 50.4234 33.7941 50.5985 34.6846V34.68ZM5.91366 45.82C6.09817 44.9132 6.17504 44.004 6.47309 43.1705C7.38971 40.5883 9.22531 38.8979 11.8628 37.9945C14.8989 36.9575 16.6079 34.0057 16.0284 30.9027C15.6132 28.6774 15.9101 26.5882 17.1721 24.6688C18.2768 22.9935 19.8451 21.9367 21.7493 21.2856C23.0286 20.8548 24.1293 20.0241 24.883 18.9204C25.6367 17.8168 26.002 16.5008 25.9231 15.1738C25.9045 15.0511 25.8587 14.9339 25.7891 14.8304C25.7194 14.727 25.6275 14.6398 25.5198 14.5751C23.2371 13.4473 20.8232 13.2078 18.3323 13.6694C15.0775 14.2774 12.3004 15.8121 9.89001 17.9978C5.22886 22.2215 2.54051 27.4579 1.93495 33.6685C1.62034 36.8889 2.09462 40.014 3.65228 42.9193C4.22502 44.0105 4.99076 44.9927 5.91366 45.82ZM24.822 12.2394C25.0585 12.337 25.2667 12.4184 25.4678 12.4975C27.0749 13.1383 28.5218 14.1136 29.709 15.3563C32.2153 17.9292 33.4074 21.0833 33.7812 24.57C34.0831 27.3804 33.8354 30.2217 33.0514 32.9407C33.0018 33.1163 33.0692 33.4267 33.2005 33.5348C35.4784 35.4031 38.0177 36.7703 40.9639 37.3074C43.3933 37.7516 45.7587 37.5748 48.0047 36.4866C48.181 36.4018 48.4021 36.2332 48.4364 36.0693C48.809 34.3254 48.5239 32.6977 47.5305 31.2015C46.5996 29.8005 45.2324 29.0425 43.6747 28.4728C40.1029 27.1649 37.9255 23.3574 38.5961 19.6812C38.8504 18.2861 38.8811 16.92 38.3004 15.5854C37.4725 13.6845 36.0118 12.5172 34.0426 11.8569C33.0774 11.5453 32.1871 11.043 31.4267 10.3808C30.6662 9.71866 30.0515 8.91061 29.6203 8.00635C29.1733 7.09951 28.9036 6.10898 28.5559 5.16494C26.5346 7.05185 25.3885 9.46076 24.822 12.2394Z" fill="#B98D58"/>
</svg>
