<svg width="50" height="50" viewBox="0 0 50 50" fill="none" xmlns="http://www.w3.org/2000/svg">
<g clip-path="url(#clip0_332_781)">
<path d="M0 43.9457C0.227543 43.4791 0.604346 43.3319 1.11371 43.333C4.72622 43.3466 8.33873 43.3403 11.9523 43.3403H12.5253C12.5483 43.2923 12.5817 43.2526 12.5723 43.2359C11.8917 42.0564 11.9742 40.7213 11.827 39.4405C11.4231 35.904 11.064 32.3653 10.6799 28.8163C10.3097 25.3417 9.93883 21.8657 9.56725 18.3883C9.19358 14.8956 8.81782 11.4026 8.43997 7.90919C8.1999 5.6785 7.95148 3.45094 7.72394 1.21399C7.63209 0.312108 7.94 0 8.85644 0H41.3241C42.2635 0 42.5579 0.326722 42.4629 1.25261C42.3658 2.20355 42.2541 3.15344 42.1498 4.1691H42.7374C44.2509 4.1691 45.7644 4.16284 47.2778 4.1691C48.9907 4.18163 49.9969 5.20042 49.9969 6.92067C49.9969 12.8608 49.9969 18.8024 49.9969 24.7453C49.9969 26.4781 48.9771 27.499 47.2309 27.5063C44.9199 27.5157 42.609 27.5063 40.2981 27.5063H39.6541C39.5497 28.4259 39.4453 29.3246 39.3545 30.2203C38.9767 33.7296 38.5936 37.238 38.2293 40.7484C38.1385 41.6211 38.0853 42.4948 37.505 43.3382H48.7318C49.7985 43.3382 50.0981 43.6775 49.9729 44.7369C49.6597 47.4259 47.7809 49.4144 45.0869 49.9154C45.0276 49.9348 44.9714 49.9626 44.9199 49.9979H5.07797C5.00959 49.9609 4.93752 49.9312 4.86295 49.9092C3.06139 49.5804 1.67004 48.6367 0.792226 47.0397C0.432123 46.3862 0.260944 45.6294 0.0041752 44.9196L0 43.9457ZM9.4587 1.68998C9.53072 2.37891 9.59752 3.03862 9.66745 3.69729C10.0056 6.86778 10.3442 10.0376 10.683 13.2067C11.031 16.4252 11.3761 19.643 11.7185 22.8601L12.7455 32.4175C13.0524 35.2797 13.3802 38.1399 13.6589 41.0052C13.8154 42.618 14.545 43.3392 16.1639 43.3403H29.8374C31.3185 43.3403 32.7996 43.3507 34.2807 43.3403C35.4946 43.3288 36.3683 42.5752 36.4956 41.4332C36.7733 38.8789 37.0321 36.3184 37.3025 33.7672C37.6393 30.5807 37.9781 27.3946 38.3191 24.2088C38.6622 21.0077 39.007 17.8065 39.3535 14.6054C39.7014 11.3876 40.0466 8.16945 40.3889 4.95094C40.4985 3.86848 40.6133 2.79019 40.7281 1.68998H9.4587ZM48.2089 45.0438H1.75146C1.83554 45.3216 1.93413 45.5948 2.04684 45.8622C2.86934 47.5689 4.26696 48.3361 6.12801 48.3361H43.8636C43.9941 48.3361 44.1246 48.3361 44.254 48.3309C46.2393 48.2255 47.758 46.9791 48.2089 45.0438ZM41.7855 7.50835C42.4952 7.50835 43.1424 7.50835 43.7916 7.50835C45.6109 7.50835 46.5962 8.48956 46.5973 10.3048C46.5973 13.9812 46.5973 17.6573 46.5973 21.333C46.5973 23.1795 45.6172 24.1576 43.7707 24.1639C42.6487 24.1639 41.5266 24.1566 40.4046 24.1733C40.2616 24.1733 40.0152 24.2777 39.9975 24.3737C39.9119 24.8413 39.8858 25.3205 39.8357 25.8278C42.4284 25.8278 44.9502 25.8392 47.4668 25.8194C48.0575 25.8194 48.33 25.4582 48.331 24.8069C48.331 18.8222 48.331 12.8375 48.331 6.85282C48.331 6.15031 48.0179 5.85073 47.3123 5.84551C46.2226 5.8382 45.1329 5.84551 44.0432 5.84551H41.9723C41.9097 6.39979 41.8554 6.91336 41.7855 7.50835ZM41.607 9.1785C41.13 13.6347 40.6592 18.0376 40.1833 22.4937H43.7238C44.6976 22.4937 44.9325 22.2589 44.9325 21.2881C44.9325 17.6451 44.9325 14.0017 44.9325 10.358C44.9325 10.2276 44.9325 10.0971 44.9241 9.96764C44.8803 9.51148 44.5985 9.19833 44.1423 9.1858C43.3167 9.1618 42.4879 9.1785 41.607 9.1785Z" fill="#B98D58"/>
<path d="M41.6072 9.17851C42.4881 9.17851 43.3158 9.1618 44.1425 9.18581C44.5986 9.19834 44.8805 9.51149 44.9243 9.96765C44.9368 10.0971 44.9326 10.2276 44.9326 10.358C44.9326 14.0011 44.9326 17.6444 44.9326 21.2881C44.9326 22.2589 44.6978 22.4917 43.7239 22.4937H40.1855C40.6594 18.0376 41.1302 13.6347 41.6072 9.17851Z" fill="white"/>
<path d="M30.8705 19.3006C30.6356 22.6232 29.4676 25.5063 26.591 27.4593C24.5849 28.8163 22.1497 28.5637 20.7458 26.9186C19.7313 25.7286 19.2971 24.3006 19.2846 22.7724C19.2428 19.9436 20.1655 17.4321 22.0892 15.3507C23.2666 14.0752 24.7446 13.3038 26.5325 13.3674C28.3205 13.4311 29.8392 14.761 30.4707 16.7735C30.5889 17.1447 30.6789 17.5244 30.74 17.9092C30.8089 18.3518 30.8266 18.8079 30.8705 19.3006ZM21.251 24.4603C24.7748 22.3079 26.4918 19.0939 27.1473 15.1033C26.6254 15.1033 26.0942 14.999 25.6171 15.1221C24.111 15.4979 23.0881 16.5115 22.2969 17.8058C21.0402 19.8633 20.6916 22.0543 21.251 24.4603ZM22.1101 25.9217C22.7008 26.4864 23.3156 26.7484 24.0337 26.6357C24.6714 26.5443 25.2839 26.3245 25.8342 25.9895C26.3844 25.6545 26.861 25.2113 27.235 24.6868C28.3925 23.1159 29.0825 21.3726 29.1388 19.4102C29.167 18.452 29.07 17.5042 28.5272 16.5365C27.7496 20.6357 25.5796 23.6879 22.1101 25.9175V25.9217Z" fill="#B98D58"/>
<path d="M24.9945 40.0052H32.9459C33.7528 40.0052 34.1452 40.2703 34.1598 40.8163C34.1745 41.3622 33.7507 41.6722 32.9303 41.6722H17.0764C16.2507 41.6722 15.8322 41.3841 15.8384 40.8257C15.8447 40.2672 16.2455 40.0052 17.091 40.0042L24.9945 40.0052Z" fill="#B98D58"/>
</g>
<defs>
<clipPath id="clip0_332_781">
<rect width="50" height="50" fill="white"/>
</clipPath>
</defs>
</svg>
