<svg width="50" height="50" viewBox="0 0 50 50" fill="none" xmlns="http://www.w3.org/2000/svg">
<g clip-path="url(#clip0_332_823)">
<path d="M0 11.041V0.593847C0.261889 0.132546 0.660462 0 1.18111 0C17.0614 0.00974089 32.9421 0.0125242 48.8231 0.00834953C49.7214 0.00834953 49.9896 0.274484 49.9906 1.16891C49.9906 4.26025 49.9906 7.35159 49.9906 10.4429C49.9906 11.4302 49.7485 11.6682 48.7385 11.6703C48.0593 11.6703 47.3821 11.6703 46.7019 11.6703V45.0092H48.7886C49.7277 45.0092 49.9833 45.2576 49.9843 46.1833C49.9843 47.0621 49.9635 47.9408 49.9927 48.8186C50.0094 49.3404 49.8602 49.738 49.399 50H0V45.6062C0.236848 45.1522 0.606206 44.98 1.11851 45.0019C1.84262 45.0311 2.56985 45.0092 3.30335 45.0092V11.6703C2.55212 11.6703 1.82384 11.6609 1.09555 11.6703C0.594729 11.6818 0.208677 11.5315 0 11.041ZM5.00824 44.9601H19.3339C19.1106 44.1847 18.7673 43.4124 18.6787 42.6119C18.253 38.7973 17.8982 34.9754 17.5142 31.1566C17.4381 30.4031 17.7636 29.995 18.518 29.9939C22.8306 29.9877 27.1433 29.9877 31.4559 29.9939C32.2374 29.9939 32.5619 30.402 32.4722 31.1889C32.3929 31.8799 32.3313 32.5718 32.2562 33.3264C32.5891 33.3264 32.8822 33.3201 33.166 33.3264C34.9074 33.3692 36.2346 34.3179 36.5435 35.9251C36.7115 36.8049 36.6593 37.74 36.6123 38.6449C36.5638 39.3987 36.2483 40.1105 35.7225 40.6526C35.1966 41.1946 34.4948 41.5315 33.743 41.6027C32.9876 41.6653 32.2228 41.6141 31.4612 41.6141C31.3568 42.2779 31.3255 42.8519 31.1774 43.3946C31.0292 43.9373 30.7683 44.4383 30.5513 44.9758H44.9698V11.7037H33.3205V12.2683C33.3205 13.3756 33.3205 14.4819 33.3205 15.5882C33.3205 16.3845 33.0304 16.6642 32.2249 16.6736C31.7752 16.6799 31.3255 16.6736 30.8685 16.6736C30.832 17.2529 30.8007 17.7663 30.7642 18.2986H34.9899C34.9899 18.0325 34.9753 17.805 34.9899 17.5806C35.0347 16.9794 35.3227 16.682 35.9185 16.6788C38.0825 16.6684 40.2468 16.6684 42.4115 16.6788C42.9801 16.6788 43.3025 16.9794 43.3171 17.5472C43.3443 18.6208 43.3443 19.6947 43.3171 20.769C43.3036 21.3346 42.9822 21.6571 42.4219 21.6613C40.2426 21.6766 38.0623 21.6766 35.8809 21.6613C35.3342 21.6613 35.0462 21.3555 34.9961 20.8118C34.9711 20.5602 34.9961 20.3035 34.9961 20.0071C33.3351 20.0071 31.7439 20.0008 30.1527 20.0175C30.0213 20.0175 29.8648 20.1449 29.7657 20.2534C29.0791 20.9996 28.2528 21.535 27.2407 21.5945C25.8791 21.6749 24.5091 21.6989 23.1464 21.6404C22.1291 21.6049 21.1613 21.1919 20.4315 20.482C19.7018 19.7721 19.2622 18.816 19.1983 17.7997C19.1805 17.4334 19.1461 17.0692 19.1179 16.6788H18.3959C18.1517 16.6788 17.9076 16.6872 17.6655 16.6788C16.9821 16.6517 16.691 16.3657 16.6754 15.6853C16.666 15.2949 16.6754 14.9046 16.6754 14.5143V11.7037H5.00824V44.9601ZM48.3087 1.70848H1.70072V9.96702H48.3087V1.70848ZM19.2911 31.693C19.2782 31.7489 19.2705 31.8059 19.2682 31.8632C19.6219 35.4398 19.9651 39.0165 20.3376 42.591C20.4952 44.1043 21.5386 45.0008 23.0755 45.0081C24.3275 45.0137 25.5796 45.0137 26.8317 45.0081C28.5313 45.0081 29.5299 44.0365 29.6843 42.3301C29.9086 39.8524 30.1757 37.3789 30.4219 34.9034C30.5263 33.8409 30.6306 32.7785 30.735 31.693H19.2911ZM48.3275 48.3124V46.7104H1.6882V48.3124H48.3275ZM18.3636 14.9766H31.6333V11.7037H18.3636V14.9766ZM20.8677 16.7049C20.6663 18.6555 21.6356 19.9403 23.3499 20.0029C24.4527 20.0426 25.5598 20.0447 26.6616 20.0029C28.3957 19.9351 29.5059 18.4165 29.1 16.706L20.8677 16.7049ZM31.5968 39.962C32.3272 39.962 32.9761 40.0121 33.6157 39.9495C34.3607 39.8754 34.9033 39.2523 34.9648 38.504C34.9951 38.1481 34.9648 37.7891 34.9899 37.4322C35.1318 35.374 34.1666 34.9013 32.4576 34.9868C32.1237 35.0046 32.0517 35.1392 32.0308 35.4241C31.986 36.0232 31.9119 36.6202 31.8545 37.2182C31.7679 38.121 31.6855 39.0238 31.5968 39.962ZM41.631 19.9873V18.3832H36.7021V19.9904L41.631 19.9873Z" fill="#B98D58"/>
<path d="M25.0003 8.33261C23.7159 8.33261 22.4315 8.33261 21.1471 8.33261C20.2633 8.33261 20.0067 8.07795 19.9994 7.21066C19.9994 6.25153 19.9931 5.2924 19.9994 4.33327C20.0056 3.65802 20.3124 3.34075 20.9833 3.33866C23.6502 3.33031 26.3164 3.33031 28.9819 3.33866C29.6601 3.33866 29.9699 3.65176 29.9762 4.32388C29.9846 5.33206 29.9846 6.34094 29.9762 7.35052C29.971 8.03412 29.6809 8.32843 28.9923 8.33365C27.6662 8.33887 26.3327 8.33261 25.0003 8.33261ZM21.6938 6.63039H28.2755V5.02418H21.6938V6.63039Z" fill="#B98D58"/>
<path d="M6.64842 8.32534C6.32242 8.32522 5.99967 8.26053 5.69879 8.13502C5.3979 8.00951 5.12484 7.82565 4.89534 7.59406C4.66585 7.36246 4.48446 7.08771 4.36165 6.78565C4.23883 6.48358 4.17702 6.16019 4.17978 5.83411C4.18248 5.17592 4.44408 4.54525 4.908 4.07847C5.37192 3.61169 6.00087 3.34632 6.65886 3.33975C8.02465 3.33348 9.19011 4.5097 9.16298 5.8696C9.15011 6.52718 8.87918 7.15332 8.4087 7.6128C7.93822 8.07227 7.30595 8.32821 6.64842 8.32534ZM6.60669 6.65548C6.71609 6.6634 6.82597 6.64946 6.92993 6.61447C7.03389 6.57948 7.12985 6.52414 7.21221 6.45167C7.29456 6.3792 7.36167 6.29105 7.40962 6.19237C7.45757 6.09369 7.48539 5.98645 7.49148 5.8769C7.49366 5.66405 7.41638 5.45804 7.27473 5.29918C7.13309 5.14032 6.93729 5.04004 6.72563 5.01796C6.51387 5.00698 6.30587 5.07703 6.14386 5.21388C5.98186 5.35073 5.87799 5.54412 5.85336 5.75479C5.84068 5.86384 5.85037 5.97433 5.88186 6.0795C5.91335 6.18467 5.96596 6.28231 6.03649 6.36643C6.10701 6.45055 6.19395 6.51939 6.292 6.56873C6.39004 6.61808 6.49712 6.64688 6.60669 6.65339V6.65548Z" fill="#B98D58"/>
<path d="M41.227 4.99704C40.6918 4.99704 40.1565 5.00852 39.6223 4.99704C39.0881 4.98556 38.7698 4.65889 38.7584 4.19863C38.7527 4.08803 38.77 3.97746 38.809 3.87381C38.848 3.77017 38.908 3.67569 38.9851 3.59626C39.0623 3.51684 39.155 3.45417 39.2574 3.41218C39.3599 3.37019 39.4699 3.34978 39.5805 3.35222C40.6824 3.32508 41.7852 3.32717 42.8881 3.35222C42.9987 3.35056 43.1086 3.37093 43.2114 3.41214C43.3141 3.45336 43.4076 3.5146 43.4864 3.59229C43.5653 3.66999 43.6279 3.76259 43.6706 3.86472C43.7133 3.96684 43.7353 4.07644 43.7353 4.18715C43.7353 4.65471 43.3743 4.99182 42.8328 5.00434C42.2913 5.01687 41.7623 4.99704 41.227 4.99704Z" fill="#B98D58"/>
<path d="M41.2135 8.33054C40.6918 8.33054 40.1753 8.34307 39.6578 8.33054C39.0965 8.31384 38.7626 7.9997 38.7574 7.51857C38.7522 7.03744 39.0861 6.69094 39.638 6.68364C40.7078 6.65998 41.778 6.65998 42.8485 6.68364C43.3879 6.69616 43.7416 7.07188 43.7322 7.52901C43.7229 7.98613 43.3754 8.31906 42.8193 8.33472C42.2861 8.34202 41.7509 8.33054 41.2135 8.33054Z" fill="#B98D58"/>
</g>
<defs>
<clipPath id="clip0_332_823">
<rect width="50" height="50" fill="white"/>
</clipPath>
</defs>
</svg>
