<svg width="46" height="50" viewBox="0 0 46 50" fill="none" xmlns="http://www.w3.org/2000/svg">
<g clip-path="url(#clip0_332_812)">
<path d="M1.61277 50C1.13312 49.7862 0.978793 49.4035 0.987135 48.8978C1.00486 47.9395 0.987135 46.9802 0.994434 46.0209C1.00278 45.3035 1.29265 45.0199 2.00693 45.0157C3.0288 45.0084 4.04964 45.0157 5.14138 45.0157V27.9744C5.14138 26.9202 5.37599 26.6876 6.43645 26.6876H13.1485C12.7033 26.2799 12.3143 25.9577 11.9567 25.5928C10.3477 23.965 9.42179 21.9953 9.34984 19.718C9.26329 16.7984 9.3123 13.8672 9.31543 10.9413C9.31543 10.3981 9.60739 10.1072 10.1496 10.0488C10.3116 10.0352 10.4741 10.031 10.6366 10.0362H19.2912C19.2912 9.32511 19.2912 8.64942 19.2912 7.97268C19.2912 6.95602 19.5425 6.70785 20.5592 6.70472C21.1932 6.70472 21.8272 6.70125 22.4611 6.69429C22.5175 6.68183 22.5724 6.6633 22.6248 6.63903V4.68912C22.6248 3.60156 22.8511 3.37633 23.9408 3.37633H32.7446C32.4661 2.22932 32.7101 1.29086 33.6069 0.57972C34.5787 -0.196072 37.3148 -0.188772 38.2992 0.57972C38.7093 0.892292 39.0119 1.32474 39.1651 1.81708C39.3183 2.30942 39.3145 2.83724 39.1542 3.32732C38.8174 4.35962 37.8967 5.03531 36.7434 5.03844C32.8092 5.04887 28.875 5.03844 24.9408 5.03844H24.336V6.70681H26.363C27.387 6.70681 27.6352 6.95289 27.6373 7.96956C27.6373 8.63377 27.6373 9.29695 27.6373 10.0373H36.3806C37.3732 10.0373 37.6162 10.2834 37.6162 11.2781C37.6162 13.7494 37.5953 16.2207 37.6214 18.6909C37.6558 21.89 36.5015 24.5135 33.9593 26.4958C33.9218 26.525 33.8926 26.5656 33.7748 26.6887H40.5911C41.5108 26.6887 41.7882 26.9629 41.7882 27.8784C41.7882 33.3701 41.7882 38.8646 41.7882 44.3619V45.0147H43.1656C43.7996 45.0147 44.4346 45.0042 45.0675 45.0209C45.5889 45.0355 45.909 45.315 45.9195 45.827C45.9434 46.9479 45.9278 48.0699 45.9247 49.1918C45.9247 49.6089 45.6442 49.8237 45.3188 50.001L1.61277 50ZM40.0896 44.9855V28.3862H6.84415V44.9855H40.0896ZM35.8571 11.738H11.0036C11.0036 14.4564 10.8795 17.1445 11.0338 19.816C11.2487 23.5313 14.3706 26.5646 18.0035 26.6501C21.6363 26.7356 25.2859 26.7325 28.925 26.6501C32.366 26.5729 35.562 23.7117 35.8154 20.2988C36.0292 17.4782 35.8571 14.6253 35.8571 11.738ZM44.2417 46.6997H2.69721V48.2993H44.2417V46.6997ZM20.994 9.99871H25.9366V8.40125H20.994V9.99871ZM35.9364 3.36798C36.2283 3.36798 36.5224 3.38467 36.8122 3.36798C37.0176 3.36049 37.2126 3.27656 37.3593 3.13265C37.5059 2.98874 37.5934 2.79523 37.6047 2.59011C37.6256 2.197 37.3566 1.79242 36.9374 1.75592C36.2752 1.70431 35.61 1.70431 34.9478 1.75592C34.5308 1.79137 34.2565 2.2043 34.3024 2.5974C34.3545 3.03952 34.6152 3.30959 35.0594 3.35338C35.3493 3.38988 35.6433 3.36798 35.9364 3.36798Z" fill="#B98D58"/>
<path d="M23.4549 31.6792C26.9307 31.6792 30.4093 31.6792 33.8906 31.6792C34.8562 31.6792 35.1189 31.9325 35.1148 32.8835C35.1075 34.6562 35.1367 36.4288 35.0595 38.2014C35.0032 39.4819 34.5684 40.6623 33.3369 41.2775C32.7803 41.5367 32.173 41.6688 31.559 41.6644C26.4385 41.6949 21.318 41.6991 16.1975 41.6769C14.0401 41.6717 12.4854 40.4965 11.9536 38.4965C11.8578 38.0865 11.8126 37.6663 11.8191 37.2453C11.8035 35.7854 11.8097 34.3194 11.8191 32.8564C11.8191 31.9378 12.085 31.6812 13.0245 31.6812C16.4996 31.6785 19.9764 31.6778 23.4549 31.6792ZM33.5069 33.3757H13.4864C13.4864 34.7219 13.475 36.0357 13.4864 37.3495C13.5052 38.9835 14.5 40.0043 16.1402 40.0095C21.31 40.0262 26.4799 40.0262 31.6498 40.0095C32.6487 40.0095 33.2139 39.63 33.2973 38.654C33.4485 36.9137 33.4443 35.1598 33.5069 33.3757Z" fill="#B98D58"/>
<path d="M23.4641 13.374H33.0218C33.8716 13.374 34.2731 13.6347 34.2793 14.1915C34.2856 14.7483 33.8695 15.0414 32.9988 15.0414C26.6424 15.0414 20.2866 15.0414 13.9315 15.0414C13.7368 15.0433 13.5422 15.03 13.3496 15.0017C12.894 14.9308 12.675 14.6274 12.6541 14.1936C12.6354 13.7974 12.9482 13.4637 13.3715 13.4043C13.5649 13.3804 13.7597 13.3707 13.9544 13.3751L23.4641 13.374Z" fill="#B98D58"/>
<path d="M23.4384 37.5081C23.1621 37.5081 22.8847 37.5268 22.6105 37.5081C22.3965 37.4998 22.1939 37.4095 22.0446 37.256C21.8953 37.1024 21.8108 36.8974 21.8086 36.6833C21.8094 36.4689 21.8941 36.2634 22.0446 36.1108C22.195 35.9582 22.3993 35.8706 22.6136 35.8668C23.1819 35.8418 23.7522 35.8418 24.3195 35.8668C24.5337 35.872 24.7374 35.9607 24.887 36.114C25.0366 36.2674 25.1204 36.4732 25.1203 36.6874C25.117 36.9013 25.0316 37.1058 24.8817 37.2585C24.7319 37.4113 24.5291 37.5006 24.3153 37.5081C24.0244 37.5268 23.7303 37.5081 23.4384 37.5081Z" fill="#B98D58"/>
</g>
<defs>
<clipPath id="clip0_332_812">
<rect width="44.9417" height="50" fill="white" transform="translate(0.988281)"/>
</clipPath>
</defs>
</svg>
