<svg width="44" height="50" viewBox="0 0 44 50" fill="none" xmlns="http://www.w3.org/2000/svg">
<g clip-path="url(#clip0_332_834)">
<path d="M10.4147 50.0002C9.9336 49.6965 9.81462 49.2822 9.88037 48.7134C10.3072 45.0471 10.7007 41.3767 11.1056 37.7073C11.234 36.5437 11.3613 35.3801 11.4969 34.2175C11.5658 33.6289 11.8591 33.3638 12.4623 33.3304C12.671 33.3179 12.8797 33.3304 13.1636 33.3304C13.1636 32.6927 13.172 32.078 13.1542 31.4685C13.1542 31.3809 13.0436 31.2755 12.958 31.215C12.2828 30.737 12.0031 30.0513 11.8904 29.2655C11.3373 25.4041 10.7775 21.5426 10.2112 17.6812C10.156 17.453 10.0255 17.25 9.84072 17.1052C6.95544 14.7208 4.06356 12.3448 1.16507 9.97721C0.848856 9.72257 0.584819 9.44079 0.689181 8.99203C0.793543 8.54327 1.11602 8.33455 1.69941 8.33246C3.79918 8.32724 5.89895 8.33246 7.99768 8.33246C8.11128 8.3241 8.22534 8.3241 8.33894 8.33246C8.86075 8.41178 9.11122 8.2521 9.29594 7.69481C9.84176 6.03754 11.4562 5.00957 13.3661 4.99809C14.944 4.98869 16.5209 4.99809 18.1907 4.99809C18.0759 3.27298 18.4329 1.73572 19.9367 0.704619C20.7601 0.141062 21.6921 -0.0447021 22.6762 0.0168717C23.9286 0.0961871 24.9555 0.619042 25.7247 1.62301C26.4802 2.60923 26.5794 3.76557 26.5199 4.99809C28.0853 4.99809 29.5944 4.98348 31.1025 5.00644C31.6058 5.00411 32.1074 5.0644 32.5959 5.18594C34.0152 5.56999 34.9785 6.48212 35.4293 7.88579C35.5472 8.25419 35.7174 8.34707 36.0816 8.34081C37.432 8.3189 38.7835 8.3262 40.134 8.33455C42.0313 8.34081 43.0572 9.38548 43.1438 11.288C43.3431 15.905 43.5706 20.5199 43.7867 25.1348C43.8587 26.6794 43.9474 28.2229 43.9954 29.7674C44.058 31.6126 42.6314 33.2114 40.8645 33.3158C39.1613 33.4118 37.5406 31.9591 37.3611 30.1703C37.3409 29.9434 37.3322 29.7156 37.335 29.4878C37.335 24.3288 37.335 19.1705 37.335 14.0129V13.346C36.6243 13.346 35.949 13.3325 35.2759 13.3627C35.1945 13.3627 35.0724 13.5892 35.0526 13.7228C34.7113 16.0188 34.3826 18.3241 34.0517 20.6253C33.6259 23.585 33.1987 26.5454 32.7702 29.5065C32.7264 29.8381 32.6173 30.1576 32.4493 30.4467C32.2813 30.7358 32.0576 30.9888 31.7913 31.1909C31.6446 31.3243 31.5537 31.508 31.5366 31.7055C31.5032 32.221 31.5251 32.7397 31.5251 33.297C31.7234 33.3085 31.88 33.3231 32.0365 33.3262C32.8902 33.3398 33.1323 33.5401 33.2314 34.399C33.4464 36.24 33.6426 38.083 33.8482 39.925C34.1627 42.7533 34.4758 45.5815 34.7875 48.4097C34.8198 48.6998 34.9002 49.0233 34.8094 49.278C34.7113 49.5514 34.4379 49.7622 34.2406 50.0002H10.4147ZM12.1263 18.9732C12.1419 19.1684 12.144 19.2321 12.1523 19.2957C12.6241 22.5936 13.0965 25.8911 13.5696 29.1882C13.6604 29.8092 13.9035 29.9908 14.5735 29.9918C19.7631 29.9918 24.9531 29.9918 30.1434 29.9918C30.8353 29.9918 31.0367 29.8217 31.1369 29.1329C31.9753 23.3589 32.8119 17.5845 33.6468 11.8098C33.7324 11.2233 33.8034 10.6347 33.8816 10.0357H15.3584C15.4825 11.1972 15.5973 12.3108 15.7205 13.4233C15.9866 15.8309 16.26 18.2375 16.5241 20.6451C16.5846 21.1972 16.2674 21.6554 15.7737 21.6366C15.4878 21.607 15.217 21.4937 14.9952 21.311C14.0538 20.5763 13.1375 19.804 12.1263 18.9732ZM31.6243 35.0284H13.0874C12.7796 37.7981 12.4759 40.5397 12.1638 43.3408H12.79C16.1108 43.3408 19.4313 43.3408 22.7514 43.3408C22.9463 43.3311 23.1418 43.3409 23.3348 43.37C23.5144 43.3973 23.6786 43.4875 23.7979 43.6245C23.9172 43.7616 23.9838 43.9366 23.986 44.1183C24.0088 44.2917 23.9687 44.4675 23.873 44.6138C23.7772 44.7601 23.6322 44.8672 23.4642 44.9156C23.2306 44.9825 22.988 45.0125 22.7451 45.0043C19.3596 45.0092 15.9741 45.0092 12.5886 45.0043H11.9781C11.8528 46.1231 11.7307 47.196 11.6065 48.3064H33.1052C32.6084 43.872 32.1179 39.4658 31.6243 35.0284ZM35.3657 11.6648H37.7013C38.7898 11.6648 39.0069 11.887 39.0069 12.9922C39.0069 18.4887 39.0069 23.9879 39.0069 29.4898C39.0007 29.6848 39.0067 29.88 39.0246 30.0743C39.129 30.9092 39.9722 31.6658 40.7602 31.6512C41.5116 31.6366 42.2212 30.93 42.3204 30.0931C42.3339 29.9309 42.3339 29.7679 42.3204 29.6057C42.2379 27.867 42.1492 26.1283 42.0689 24.3876C41.865 19.9682 41.6625 15.5488 41.4615 11.1294C41.4281 10.4228 41.0774 10.0273 40.3698 10.0127C38.8733 9.98139 37.3757 9.99391 35.8823 10.0127C35.8127 10.0262 35.7476 10.0568 35.693 10.1018C35.6383 10.1468 35.5957 10.2048 35.5692 10.2705C35.4732 10.7057 35.4325 11.1555 35.3657 11.6648ZM14.5976 18.8449C14.5976 18.6069 14.6111 18.4619 14.5976 18.3231C14.3085 15.6921 14.0079 13.0611 13.7313 10.4291C13.6917 10.0565 13.532 9.99183 13.2001 9.99391C10.2415 10.0043 7.28279 9.99913 4.32934 10.0012C4.21245 10.0012 4.09452 10.0252 3.88058 10.0482L14.5976 18.8449ZM10.829 8.29385H33.795C33.7838 8.21883 33.7652 8.14508 33.7397 8.07364C33.6894 7.97179 33.6322 7.87346 33.5685 7.77934C32.9987 6.95384 32.1847 6.65745 31.212 6.65849C25.2912 6.66406 19.3711 6.66614 13.4517 6.66475C13.1592 6.65856 12.867 6.68729 12.5813 6.75033C11.7568 6.94966 11.1849 7.45269 10.829 8.29385ZM14.8616 33.2897H29.8324V31.6898H14.8616V33.2897ZM24.8376 4.96469C24.9419 3.80731 24.8679 2.72299 23.7846 2.05507C22.8349 1.4696 21.8142 1.48003 20.8749 2.08533C19.8219 2.76369 19.7791 3.83549 19.8887 4.96469H24.8376Z" fill="#B98D58"/>
<path d="M28.1758 43.3437C28.7112 43.3437 29.2466 43.3302 29.7819 43.3437C30.3173 43.3573 30.6314 43.6693 30.645 44.14C30.6524 44.2505 30.6368 44.3613 30.599 44.4654C30.5612 44.5694 30.5021 44.6645 30.4255 44.7444C30.3489 44.8243 30.2564 44.8874 30.1541 44.9296C30.0517 44.9718 29.9417 44.9922 29.831 44.9895C28.7279 45.0198 27.6237 45.0177 26.5217 44.9895C26.411 44.992 26.3009 44.9725 26.1978 44.932C26.0948 44.8916 26.0008 44.831 25.9213 44.7539C25.8419 44.6768 25.7786 44.5847 25.7351 44.4829C25.6916 44.381 25.6688 44.2716 25.668 44.1609C25.668 43.6923 26.0259 43.3656 26.5697 43.3364C26.602 43.3364 26.6344 43.3364 26.6667 43.3364H28.1758V43.3437Z" fill="#B98D58"/>
</g>
<defs>
<clipPath id="clip0_332_834">
<rect width="43.3312" height="50" fill="white" transform="translate(0.666016)"/>
</clipPath>
</defs>
</svg>
