<svg width="51" height="50" viewBox="0 0 51 50" fill="none" xmlns="http://www.w3.org/2000/svg">
<g clip-path="url(#clip0_332_793)">
<path d="M0 44.0418C0.226551 43.5083 0.632674 43.3297 1.20375 43.3318C5.38712 43.3454 9.57154 43.3391 13.7549 43.3391H14.3385C14.3057 43.251 14.2648 43.1661 14.2164 43.0854C12.7547 41.2135 12.0793 39.0336 11.6168 36.743C10.0309 28.8879 8.40537 21.041 6.7955 13.1911C6.74943 13.0016 6.71457 12.8095 6.6911 12.6158C6.65038 12.1137 6.92078 11.7712 7.42191 11.6888C7.58265 11.6656 7.745 11.6555 7.90738 11.6585C19.3018 11.6585 30.6962 11.6585 42.0905 11.6585H42.1887C43.1554 11.67 43.4718 12.0761 43.2473 13.0282C42.8791 14.5943 42.5092 16.1603 42.1375 17.7263C42.0926 17.9132 42.0613 18.1032 42.0143 18.337C43.2671 18.337 44.4897 18.337 45.7081 18.337C46.3105 18.337 46.9139 18.3235 47.5152 18.337C48.9643 18.3861 49.976 19.4166 50.0084 20.8667C50.0282 21.8261 50.0084 22.7877 50.0084 23.7482C50.0084 26.5148 49.9562 29.2815 50.0261 32.0492C50.0762 34.0276 48.7827 34.9077 47.2073 34.9442C44.4093 35.01 41.6092 34.9818 38.8092 34.9912C38.0784 34.9912 38.0784 34.9912 37.9103 35.722C37.5271 37.383 37.2473 39.0837 36.3965 40.5902C35.8745 41.5194 35.2481 42.3901 34.629 43.3433H35.1447C39.6538 43.3433 44.1629 43.3611 48.672 43.3308C49.8121 43.3224 50.1159 43.8737 49.9749 44.855C49.5907 47.5559 47.7919 49.4268 45.1015 49.9217C45.0411 49.9406 44.9832 49.9669 44.9292 50H5.07914C5.00831 49.9643 4.93418 49.9357 4.85781 49.9143C3.06523 49.6064 1.67878 48.6751 0.798672 47.0955C0.427003 46.4284 0.25996 45.6495 0 44.9208V44.0418ZM41.4401 13.3717H8.55049C8.5839 13.5805 8.60478 13.7371 8.63714 13.8937C10.2213 21.6166 11.8047 29.3389 13.3874 37.0604C13.7486 38.8353 14.327 40.5057 15.4347 41.9673C16.1238 42.8725 16.9496 43.3767 18.1648 43.3621C22.3962 43.3109 26.6287 43.335 30.8601 43.3485C31.5992 43.3643 32.3152 43.0904 32.8552 42.5854C34.306 41.2812 35.3158 39.5585 35.745 37.6555C37.3758 30.7587 38.9982 23.8606 40.6122 16.961C40.8857 15.7782 41.1572 14.5932 41.4401 13.3717ZM1.77483 45.0231C2.21436 47.083 3.85033 48.3358 6.05529 48.3358C18.6879 48.3358 31.3205 48.3358 43.9531 48.3358C44.2785 48.3358 44.6035 48.3107 44.925 48.2606C46.5902 47.9965 48.0571 46.5484 48.1991 45.0242L1.77483 45.0231ZM38.4856 33.2936C38.6359 33.3061 38.7309 33.3218 38.8259 33.3218C41.4464 33.3218 44.0669 33.3218 46.6863 33.3166C46.9787 33.3126 47.2699 33.2776 47.5549 33.2122C48.174 33.0744 48.3442 32.8551 48.3442 32.235C48.3442 28.5246 48.3442 24.8141 48.3442 21.1037C48.3442 20.28 48.0592 20.0054 47.2167 20.0043C45.8333 20.0043 44.45 19.9981 43.0667 20.0043C42.5844 20.0043 41.958 19.8655 41.6604 20.1087C41.3629 20.352 41.3754 21.0014 41.2564 21.4722C41.2502 21.5365 41.2502 21.6011 41.2564 21.6654C42.1615 21.6654 43.0688 21.6654 43.9708 21.6654C45.6412 21.6748 46.6696 22.7031 46.6769 24.3798C46.6832 25.9103 46.6769 27.4398 46.6769 28.9735C46.6769 29.5915 46.538 30.1678 46.1549 30.6648C45.6047 31.3758 44.8666 31.6629 43.9802 31.6566C42.2899 31.6451 40.5986 31.6566 38.875 31.6566C38.7476 32.1984 38.6286 32.7163 38.4856 33.2936ZM39.255 29.982C40.9421 29.982 42.5656 29.9924 44.188 29.9757C44.6776 29.9757 44.995 29.6437 45.0013 29.1186C45.0214 27.4774 45.0214 25.8366 45.0013 24.1961C44.996 23.7471 44.7486 23.3734 44.2757 23.3609C43.1272 23.3243 41.9788 23.3494 40.8148 23.3494L39.255 29.982Z" fill="#B98D58"/>
<path d="M23.3486 9.08082C23.3997 8.40888 23.7132 7.78405 24.2214 7.34149C25.2915 6.40919 25.2884 6.36638 24.2287 5.42781C23.0615 4.39424 23.073 2.80629 24.2464 1.77271C24.6212 1.44176 25.0044 1.1463 25.0817 0.571051C25.1349 0.168061 25.6037 -0.0553585 25.9879 0.0198106C26.1908 0.0568043 26.3723 0.168653 26.4967 0.333199C26.621 0.497746 26.679 0.702988 26.6592 0.908268C26.6379 1.24123 26.5497 1.56648 26.4 1.86461C26.2502 2.16274 26.0419 2.42762 25.7874 2.64342C24.7236 3.5632 24.7246 3.64463 25.777 4.55502C26.9442 5.56562 26.9358 7.2016 25.7655 8.21429C25.3844 8.54211 25.0169 8.84905 24.9303 9.41386C24.8655 9.84087 24.4083 10.0476 23.9771 9.95153C23.7856 9.90535 23.617 9.79217 23.5017 9.63247C23.3864 9.47277 23.3321 9.27709 23.3486 9.08082Z" fill="#B98D58"/>
<path d="M16.6936 9.00051C16.7209 8.67945 16.8115 8.36698 16.9602 8.08116C17.1089 7.79533 17.3129 7.54183 17.5602 7.33531C18.6167 6.43119 18.6157 6.34767 17.5602 5.42371C16.4118 4.42668 16.4118 2.78444 17.5529 1.79367C17.9433 1.45541 18.3453 1.15264 18.4142 0.557555C18.4601 0.166049 18.9456 -0.0625902 19.3287 0.016755C19.5384 0.0588767 19.7239 0.179797 19.847 0.354604C19.9702 0.529411 20.0216 0.74479 19.9906 0.956369C19.9082 1.64438 19.6284 2.23111 19.0813 2.67482C19.0562 2.6957 19.0312 2.71658 19.0072 2.7385C18.1093 3.51943 18.1104 3.69273 19.0072 4.46739C20.3164 5.59493 20.3216 7.14112 19.0249 8.28118C18.6982 8.56829 18.3672 8.83242 18.2889 9.3252C18.2106 9.81797 17.8149 10.0351 17.3555 9.95787C16.9327 9.88792 16.6769 9.54549 16.6936 9.00051Z" fill="#B98D58"/>
<path d="M33.3252 6.39665C33.313 6.74486 33.2275 7.08659 33.0745 7.39959C32.9214 7.71258 32.7041 7.98982 32.4367 8.21323C32.0567 8.54001 31.6725 8.83964 31.6015 9.41281C31.5524 9.83041 31.0795 10.0444 30.6473 9.95256C30.4484 9.90434 30.2744 9.78424 30.1587 9.61539C30.0431 9.44654 29.994 9.24089 30.0209 9.03801C30.0903 8.35079 30.4279 7.71868 30.9605 7.27884C31.9429 6.44363 31.9366 6.32878 30.9761 5.49566C29.7035 4.39422 29.7045 2.8115 30.9855 1.7111C31.3478 1.3979 31.6631 1.09513 31.7508 0.576259C31.8207 0.158652 32.1768 -0.0240505 32.5985 0.00935798C32.796 0.0249496 32.9801 0.11488 33.1139 0.260989C33.2476 0.407099 33.3208 0.598501 33.3189 0.796546C33.3302 1.13262 33.2653 1.46688 33.1289 1.77427C32.9926 2.08165 32.7884 2.35417 32.5317 2.57137C31.4627 3.47549 31.3217 3.6488 32.5474 4.6594C33.0694 5.08641 33.2939 5.70238 33.3252 6.39665Z" fill="#B98D58"/>
<path d="M30.3809 30.1971C30.2838 32.5263 29.3557 35.0476 26.9524 36.8788C24.3904 38.829 21.1863 38.1316 19.6871 35.2741C18.524 33.0577 18.5125 30.7504 19.2267 28.4128C19.7414 26.7299 20.6267 25.2703 22.0455 24.1835C24.8852 22.012 28.2814 22.9067 29.7096 26.1964C30.1836 27.2853 30.4008 28.4254 30.3809 30.1971ZM21.5872 35.1895C24.3361 31.8059 24.9802 28.5935 24.4676 24.7609C22.4067 25.5011 21.3439 27.0984 20.7697 29.0507C20.1423 31.1837 20.1955 33.2706 21.5861 35.1895H21.5872ZM22.9507 36.1427C23.9874 36.4486 24.8226 36.2847 25.5962 35.7825C27.4441 34.5809 28.3524 32.8071 28.6364 30.6773C28.8598 29.0006 28.6541 27.4001 27.6602 25.9709C27.2951 25.4312 26.7657 25.0237 26.1506 24.8089C26.7143 29.0747 25.6755 32.8217 22.9496 36.1427H22.9507Z" fill="#B98D58"/>
<path d="M18.3603 16.6678C20.4421 16.6678 22.5245 16.6678 24.6077 16.6678C24.7863 16.6607 24.9651 16.6695 25.1422 16.6939C25.5421 16.7659 25.7791 17.0133 25.8093 17.4247C25.8427 17.8496 25.6506 18.1555 25.2351 18.2682C25.0138 18.3198 24.7868 18.3423 24.5597 18.3351C20.4107 18.3392 16.2618 18.3392 12.1129 18.3351C11.8862 18.3413 11.6596 18.3188 11.4385 18.2682C11.2602 18.2305 11.1023 18.1281 10.9951 17.9809C10.8879 17.8336 10.8391 17.6518 10.858 17.4706C10.8736 17.053 11.1096 16.7732 11.5335 16.696C11.7105 16.6707 11.8894 16.6616 12.068 16.6688C14.1644 16.6667 16.2618 16.6664 18.3603 16.6678Z" fill="#B98D58"/>
<path d="M30.0228 16.6719C30.5573 16.6719 31.0929 16.6573 31.6275 16.6719C32.162 16.6865 32.4856 17.0164 32.5002 17.4695C32.5028 17.5803 32.483 17.6904 32.442 17.7933C32.401 17.8963 32.3397 17.9899 32.2618 18.0687C32.1838 18.1474 32.0908 18.2096 31.9883 18.2516C31.8858 18.2936 31.7758 18.3145 31.665 18.3131C30.5626 18.3437 29.4601 18.3437 28.3576 18.3131C27.8137 18.2984 27.4973 17.9184 27.5224 17.435C27.5474 16.9725 27.869 16.6928 28.4119 16.6625C28.4442 16.6625 28.4766 16.6625 28.509 16.6625H30.0176L30.0228 16.6719Z" fill="#B98D58"/>
</g>
<defs>
<clipPath id="clip0_332_793">
<rect width="50.0282" height="50" fill="white"/>
</clipPath>
</defs>
</svg>
