<svg width="41" height="40" viewBox="0 0 41 40" fill="none" xmlns="http://www.w3.org/2000/svg">
<ellipse cx="20.6212" cy="19.6261" rx="20.0445" ry="19.6261" fill="#B98D58"/>
<g clip-path="url(#clip0_331_5447)">
<path d="M20.6212 15.6865C18.4107 15.6865 16.6123 17.4458 16.6123 19.6081C16.6123 21.7704 18.4107 23.5297 20.6212 23.5297C22.8317 23.5297 24.6301 21.7704 24.6301 19.6081C24.6301 17.4458 22.8318 15.6865 20.6212 15.6865Z" fill="white"/>
<path d="M29.1571 11.2578C27.7678 9.89877 25.9278 9.15039 23.9759 9.15039H17.2663C15.3144 9.15039 13.4742 9.89877 12.085 11.2578C10.6957 12.6167 9.93066 14.4168 9.93066 16.3262V22.8894C9.93066 24.799 10.6957 26.5991 12.085 27.958C13.4742 29.317 15.3144 30.0654 17.2663 30.0654H23.9759C25.9278 30.0654 27.768 29.317 29.1571 27.958C30.5463 26.5991 31.3115 24.799 31.3115 22.8894V16.3262C31.3115 14.4168 30.5463 12.6167 29.1571 11.2578ZM20.6211 25.143C17.501 25.143 14.9627 22.66 14.9627 19.6079C14.9627 16.5558 17.501 14.0728 20.6211 14.0728C23.7411 14.0728 26.2795 16.5558 26.2795 19.6079C26.2795 22.66 23.7411 25.143 20.6211 25.143ZM26.8896 14.3426C26.7731 14.4565 26.6115 14.522 26.4467 14.522C26.2818 14.522 26.1204 14.4565 26.004 14.3426C25.887 14.2285 25.8203 14.0705 25.8203 13.9092C25.8203 13.7479 25.887 13.5898 26.004 13.4758C26.1204 13.3617 26.2816 13.2965 26.4467 13.2965C26.6115 13.2965 26.7731 13.3617 26.8896 13.4758C27.0062 13.5898 27.0731 13.7479 27.0731 13.9092C27.0731 14.0704 27.0062 14.2285 26.8896 14.3426Z" fill="#E7E5EA"/>
</g>
<defs>
<clipPath id="clip0_331_5447">
<rect width="21.3808" height="20.915" fill="white" transform="translate(9.93066 9.15039)"/>
</clipPath>
</defs>
</svg>
