<svg width="39" height="40" viewBox="0 0 39 40" fill="none" xmlns="http://www.w3.org/2000/svg">
<path d="M0.162109 24.0227C0.172693 24.0454 0.180034 24.0695 0.183926 24.0941C0.201279 24.3446 0.246397 24.5924 0.318473 24.8332C0.503724 25.5323 0.846725 26.1814 1.32209 26.7327C1.96367 27.4809 2.85099 27.986 3.83112 28.1609C4.31019 28.2517 4.8002 28.2734 5.28564 28.2251C5.59681 28.2019 5.90173 28.127 6.18744 28.0038C6.44282 27.8943 6.66598 27.7234 6.83631 27.5068C7.00664 27.2903 7.11864 27.0351 7.16197 26.7648C7.21473 26.4588 7.21473 26.1461 7.16197 25.8401C7.13732 25.6662 7.09964 25.4944 7.04924 25.3259C7.04924 25.3009 7.02742 25.276 7.01288 25.2367L6.96924 25.2974C6.85347 25.4684 6.69597 25.6084 6.51107 25.7044C6.3263 25.8018 6.12577 25.867 5.91836 25.8972C5.58576 25.9472 5.24734 25.9472 4.91474 25.8972C4.70747 25.8651 4.50384 25.8187 4.30384 25.7687C3.9553 25.6774 3.63618 25.5005 3.37659 25.2545C3.11223 25.0043 2.89442 24.7107 2.73297 24.3869C2.52671 23.9863 2.39728 23.5518 2.35116 23.1051C2.30109 22.6965 2.3433 22.282 2.47479 21.8912C2.61031 21.4763 2.89286 21.1228 3.27114 20.895C3.4837 20.7705 3.71796 20.6857 3.96203 20.6451C4.46183 20.5531 4.97681 20.58 5.46382 20.7236C5.91952 20.8582 6.32768 21.1155 6.64198 21.4663C6.83765 21.6772 7.00955 21.9082 7.15469 22.1554C7.37559 22.5278 7.56296 22.9185 7.71469 23.3229C7.91105 23.8371 8.0965 24.3512 8.27831 24.8689C8.65812 25.9614 9.11998 27.0248 9.6601 28.0502C10.1324 28.9507 10.6939 29.8034 11.3364 30.5959C12.0632 31.4961 12.9208 32.2865 13.8818 32.9417C15.0064 33.7049 16.2728 34.2435 17.609 34.5269C18.0328 34.617 18.4613 34.6838 18.8926 34.7269C19.6175 34.7981 20.3465 34.8196 21.0744 34.7912C21.5253 34.7912 21.9726 34.734 22.4198 34.6769C23.2608 34.5714 24.0907 34.3934 24.8998 34.1449C26.5083 33.6586 28.006 32.8718 29.3106 31.8277C30.6623 30.7445 31.7683 29.3958 32.5578 27.8681C33.0848 26.8491 33.4806 25.7697 33.736 24.6547C33.8378 24.212 33.9214 23.7692 33.9832 23.3229C34.0341 22.9659 34.0705 22.6088 34.0996 22.2518C34.1384 21.7138 34.1529 21.1747 34.1432 20.6344C34.1432 20.2024 34.1141 19.7703 34.0742 19.3419V19.1669C34.0414 19.1669 34.0414 19.1919 34.0378 19.2098C34.0123 19.4347 33.9869 19.6597 33.9578 19.8846C33.9142 20.2416 33.8523 20.5773 33.7832 20.9236C33.6206 21.748 33.4044 22.5613 33.136 23.3586C32.7388 24.5613 32.1994 25.7141 31.5287 26.7934C30.954 27.7247 30.253 28.5751 29.4452 29.3213C28.169 30.4985 26.6144 31.3451 24.9216 31.7849C24.4031 31.9223 23.8759 32.026 23.3435 32.0955C22.536 32.2002 21.721 32.2372 20.9071 32.2062C20.4635 32.2062 20.0163 32.1598 19.5726 32.1098C18.6611 32.0162 17.764 31.8173 16.9 31.5171C15.4866 31.0148 14.2248 30.1713 13.2309 29.0642C12.7129 28.4805 12.2481 27.8533 11.8419 27.1897C11.4601 26.5685 11.1146 25.9293 10.7837 25.2831C10.4528 24.6368 10.1583 24.0656 9.84191 23.4622C9.56526 22.9283 9.25685 22.4109 8.9183 21.9126C8.60993 21.4499 8.25149 21.0214 7.84923 20.6344C7.31603 20.1196 6.67604 19.7238 5.9729 19.474C5.55953 19.3291 5.12969 19.2344 4.69293 19.1919C3.96643 19.1067 3.2302 19.2251 2.56935 19.5334C1.9085 19.8417 1.35001 20.3274 0.958458 20.9343C0.611737 21.4493 0.373143 22.0271 0.256651 22.6338C0.226969 22.7592 0.209917 22.8872 0.205743 23.0159C0.199437 23.0438 0.190929 23.0713 0.180292 23.098L0.162109 24.0227Z" fill="#B98D58"/>
<path d="M38.0778 33.4624C38.0494 33.4364 38.0324 33.4005 38.0305 33.3624C37.9674 32.9628 37.7734 32.5943 37.4778 32.3127C37.334 32.1656 37.1756 32.0329 37.0051 31.9164C36.6447 31.6642 36.2627 31.4431 35.8633 31.2559L35.6779 31.1737C35.6779 31.1737 35.6779 31.2023 35.6779 31.2059L35.776 31.288C36.0946 31.5484 36.3824 31.843 36.6342 32.1663C36.7791 32.3438 36.9012 32.538 36.9978 32.7447C37.0513 32.8587 37.0904 32.9786 37.1142 33.1018C37.1578 33.3811 37.1161 33.6669 36.9942 33.923C36.9041 34.1309 36.7814 34.3236 36.6306 34.4943C36.3879 34.7755 36.1106 35.0262 35.8051 35.2405C35.3471 35.5607 34.8603 35.8392 34.3506 36.0724C33.6978 36.3791 33.0248 36.6428 32.3361 36.8615C31.4543 37.1474 30.5572 37.3858 29.6489 37.5755C29.1325 37.6827 28.6162 37.7826 28.0962 37.8647C27.6635 37.9362 27.2271 37.9933 26.7944 38.0504C26.4635 38.0968 26.1362 38.1325 25.8053 38.1682C25.5762 38.1932 25.3472 38.2075 25.1181 38.2289L24.2635 38.2896L23.6781 38.3218L22.3109 38.361C21.4781 38.3789 20.6491 38.361 19.8164 38.3432C19.4018 38.3432 18.9837 38.3182 18.5655 38.2932C18.1473 38.2682 17.6309 38.2361 17.1655 38.2039C16.8019 38.1789 16.4673 38.154 16.1219 38.1182C15.7764 38.0825 15.3946 38.0468 15.0528 38.004C14.711 37.9611 14.3437 37.9219 13.991 37.8683C13.4965 37.7933 13.0056 37.7112 12.5147 37.6291C11.9038 37.5256 11.2965 37.3934 10.6965 37.2471C9.71957 37.0174 8.7617 36.7154 7.83114 36.3437C7.3906 36.1652 6.964 35.9552 6.5548 35.7153C6.33607 35.5849 6.12707 35.4393 5.92936 35.2797C5.75661 35.1429 5.60153 34.9858 5.46755 34.812C5.34673 34.6593 5.26112 34.4827 5.21665 34.2943C5.17444 34.0633 5.18941 33.8258 5.26028 33.6016C5.35182 33.3129 5.50842 33.0481 5.71846 32.8269C5.89763 32.6289 6.10028 32.4527 6.32208 32.302C6.71205 32.033 7.1287 31.8033 7.56569 31.6165C8.17424 31.3554 8.80134 31.1383 9.44202 30.9667C9.7402 30.8845 10.0347 30.8167 10.3329 30.7417C10.3696 30.733 10.4042 30.7172 10.4347 30.6953C10.2565 30.6953 10.0711 30.7132 9.89656 30.7274C9.72202 30.7417 9.57656 30.7524 9.41293 30.7632C9.01657 30.7953 8.61658 30.8381 8.22023 30.8881C7.75842 30.9452 7.30388 31.0238 6.84934 31.1202C6.24781 31.2476 5.66158 31.4367 5.10029 31.6843C4.71607 31.8476 4.35833 32.0653 4.03849 32.3306C3.49493 32.7782 3.13671 33.4055 3.03124 34.0944C2.99307 34.3221 2.97482 34.5527 2.97669 34.7835C2.97574 35.2388 3.10147 35.6857 3.34032 36.076C3.55578 36.433 3.83117 36.7517 4.15485 37.0186C4.50595 37.3106 4.88745 37.5655 5.29301 37.7791C5.88336 38.088 6.49879 38.3484 7.13297 38.5574C7.89909 38.8118 8.67982 39.0217 9.47111 39.1858C10.002 39.3001 10.5402 39.3965 11.0784 39.4822C11.4638 39.5393 11.8529 39.5928 12.2383 39.6428C12.6238 39.6928 13.0674 39.7392 13.4819 39.7821C13.8456 39.8178 14.1692 39.8428 14.5146 39.8678C14.8601 39.8928 15.1437 39.9106 15.4564 39.932C15.6564 39.932 15.8564 39.9534 16.0564 39.9606L17.1291 39.9999C17.18 39.9964 17.231 39.9964 17.2819 39.9999H20.5036C20.5733 39.9802 20.6459 39.973 20.7182 39.9784C21.2236 39.957 21.729 39.9427 22.2345 39.9177C22.6418 39.8928 23.0418 39.8606 23.4454 39.8249C23.849 39.7892 24.2199 39.7606 24.6017 39.7142C25.0926 39.6571 25.5835 39.5928 26.0562 39.525C26.6562 39.4429 27.2526 39.3393 27.8453 39.2251C28.8853 39.0251 29.9143 38.7859 30.9325 38.4896C31.9839 38.1923 33.0131 37.8237 34.0124 37.3863C34.6877 37.0943 35.3372 36.748 35.9542 36.3509C36.3982 36.0701 36.8092 35.742 37.1797 35.3726C37.3691 35.1802 37.5384 34.9697 37.6851 34.7442C37.8601 34.4802 37.9777 34.1836 38.0305 33.873C38.0306 33.854 38.0349 33.8352 38.0431 33.8179C38.0512 33.8007 38.0631 33.7854 38.0778 33.773V33.4624Z" fill="#B98D58"/>
<path d="M31.8489 15.357L31.9362 15.4355C32.1432 15.612 32.332 15.8081 32.4998 16.0211C32.5896 16.1415 32.6687 16.2693 32.7362 16.4031C32.7923 16.5134 32.8236 16.6342 32.8279 16.7574C32.8323 16.8806 32.8097 17.0033 32.7616 17.1172C32.7005 17.2736 32.6105 17.4177 32.4962 17.5421C32.3702 17.6754 32.23 17.7951 32.078 17.8991C31.7609 18.1187 31.4208 18.3042 31.0635 18.4525C30.522 18.6768 29.9641 18.8606 29.3944 19.0024C28.7953 19.1595 28.1885 19.287 27.5763 19.3844C27.1363 19.4523 26.6927 19.5201 26.249 19.5736C25.8854 19.6201 25.5218 19.6522 25.1581 19.6843C24.7945 19.7165 24.3509 19.745 23.9473 19.7736C23.7654 19.7736 23.5836 19.795 23.3982 19.8022C22.4927 19.8379 21.58 19.8486 20.6746 19.8271C20.2164 19.8271 19.7582 19.7879 19.2964 19.7593C18.9328 19.7379 18.5692 19.7129 18.2055 19.6772C17.8419 19.6415 17.4201 19.5879 17.0274 19.5379C16.3474 19.4487 15.6711 19.3273 15.0056 19.1809C14.1897 19.0112 13.3904 18.7723 12.6166 18.4668C12.297 18.3373 11.9871 18.1858 11.6893 18.0134C11.4844 17.8949 11.2898 17.7599 11.1075 17.6099C10.9466 17.4782 10.8047 17.3257 10.6857 17.1565C10.5738 16.9972 10.4992 16.8155 10.4675 16.6245C10.4373 16.4338 10.4612 16.2386 10.5366 16.0603C10.5941 15.92 10.6726 15.7889 10.7693 15.6712C10.9334 15.4726 11.1257 15.2983 11.3402 15.1534C11.6924 14.9106 12.0704 14.7059 12.4675 14.5429C13.0511 14.2983 13.6528 14.0978 14.2675 13.9431L14.9474 13.7788C14.9751 13.7674 15.0047 13.7616 15.0347 13.7616C15.0647 13.7616 15.0943 13.7674 15.122 13.7788C15.6865 14.0732 16.2179 14.425 16.7074 14.8285C17.1377 15.1828 17.5062 15.6037 17.7983 16.0746C17.7983 16.1032 17.8274 16.1353 17.8601 16.1496C17.8928 16.1639 17.8783 16.0925 17.8783 16.0675C17.8635 15.8086 17.8133 15.5528 17.7292 15.307C17.567 14.8163 17.3211 14.3564 17.0019 13.9466C16.6142 13.4457 16.1563 13.0009 15.642 12.6256C15.4747 12.5006 15.3002 12.3792 15.122 12.2685C14.1484 11.6282 13.2291 10.9118 12.3729 10.1263C11.8634 9.66288 11.395 9.15761 10.973 8.61598C10.715 8.28321 10.4943 7.92409 10.3148 7.54485C10.1953 7.29414 10.1109 7.02871 10.0639 6.75579C9.98392 6.33543 10.0711 5.90097 10.3075 5.54184C10.32 5.52496 10.331 5.50704 10.3403 5.48828C10.3403 5.48828 10.3148 5.48828 10.3112 5.48828C9.75036 5.91867 9.32028 6.49161 9.06756 7.14496C8.90575 7.56602 8.85083 8.01944 8.90756 8.46602C8.96071 8.85668 9.08381 9.23502 9.27119 9.58357C9.47716 9.96999 9.73122 10.3298 10.0275 10.6547C10.461 11.1272 10.9562 11.5414 11.5002 11.8865C12.0001 12.2062 12.5199 12.4948 13.0566 12.7505L14.682 13.5432C14.7589 13.5768 14.8331 13.6162 14.9038 13.661C14.9038 13.6967 14.8602 13.6896 14.8383 13.6967H14.7765C13.8259 13.8095 12.8817 13.9692 11.9475 14.1751C11.1894 14.3353 10.4453 14.5537 9.72209 14.8285C9.35228 14.9673 8.99471 15.1357 8.65302 15.332C8.41654 15.4674 8.19585 15.6279 7.99485 15.8104C7.85361 15.9396 7.73124 16.0874 7.63122 16.2496C7.49998 16.4445 7.42376 16.6702 7.41034 16.9035C7.39693 17.1369 7.4468 17.3695 7.55486 17.5778C7.64885 17.7695 7.77141 17.9464 7.91849 18.1026C8.11895 18.315 8.34343 18.5043 8.58756 18.6668C9.01374 18.9474 9.46679 19.1866 9.94026 19.3808C10.6229 19.6702 11.3267 19.9089 12.0457 20.0949C12.7729 20.2949 13.5002 20.452 14.2493 20.5805C14.7547 20.6698 15.2602 20.7483 15.7656 20.8054C16.1547 20.8519 16.5438 20.8911 16.9328 20.9304C17.4092 20.9804 17.8856 21.0054 18.3619 21.034C19.511 21.0982 20.66 21.0982 21.8128 21.0697C22.3437 21.0697 22.8745 21.0304 23.4054 20.9947C23.8636 20.9661 24.3145 20.9268 24.7691 20.8804C25.2236 20.834 25.5727 20.7983 25.9763 20.7447C26.3799 20.6912 26.809 20.6234 27.2235 20.5555C27.7799 20.4663 28.3144 20.352 28.8744 20.2235C29.6954 20.0352 30.5003 19.7846 31.2816 19.4737C31.7491 19.2903 32.1962 19.0606 32.6162 18.7881C32.8298 18.6489 33.0284 18.4886 33.2089 18.3097C33.3406 18.1784 33.4542 18.0307 33.5471 17.8705C33.6764 17.6473 33.7347 17.3911 33.7143 17.135C33.6972 16.9691 33.6478 16.8079 33.5689 16.6602C33.4725 16.4817 33.35 16.3181 33.2052 16.1746C33.0461 16.0174 32.8733 15.874 32.6889 15.7461C32.4568 15.5849 32.2139 15.4393 31.9616 15.3105L31.8962 15.282L31.8489 15.357Z" fill="#B98D58"/>
<path d="M22.5327 16.8279C22.5327 16.7529 22.5582 16.6779 22.5618 16.6029C22.58 16.311 22.5691 16.018 22.5291 15.7282C22.3894 14.7141 22.0324 13.7406 21.4818 12.8718C21.054 12.1759 20.5451 11.5313 19.9655 10.9509C19.7473 10.7295 19.5182 10.5153 19.2891 10.3047C18.4455 9.52631 17.631 8.72653 16.8601 7.88034C16.1923 7.15815 15.5751 6.39232 15.0128 5.58813C14.6417 5.0616 14.3169 4.50498 14.042 3.9243C13.8524 3.52299 13.7073 3.10284 13.6092 2.67108C13.5367 2.35981 13.5073 2.04034 13.522 1.72135C13.5395 1.14846 13.752 0.59787 14.1256 0.157497L14.191 0.0789471L14.2492 0.011108C14.2274 -0.013885 14.2129 0.011108 14.1983 0.011108C14.0081 0.145712 13.8271 0.292415 13.6565 0.450272C13.0309 1.01195 12.535 1.69856 12.202 2.464C12.0107 2.92015 11.8882 3.40128 11.8384 3.89217C11.7629 4.61115 11.8245 5.33764 12.0202 6.03443C12.2874 7.05918 12.7747 8.016 13.4492 8.84079C13.8438 9.31861 14.2873 9.75531 14.7729 10.144C15.2574 10.5319 15.7663 10.8897 16.2965 11.2151C16.8383 11.5722 17.3873 11.8899 17.9292 12.222C18.471 12.554 19.0455 12.9147 19.58 13.2931C20.0555 13.6316 20.5029 14.0065 20.9182 14.4142C21.5904 15.0726 22.1209 15.857 22.4782 16.7207C22.4963 16.7779 22.5 16.8136 22.5327 16.8279Z" fill="#B98D58"/>
<path d="M25.4379 13.95C25.4379 13.85 25.4379 13.7501 25.4379 13.6501C25.4047 13.056 25.2822 12.4701 25.0742 11.9113C24.7815 11.1269 24.337 10.4055 23.7652 9.78688C23.558 9.55964 23.3357 9.34614 23.0997 9.14778C22.391 8.54467 21.7252 7.89451 21.1071 7.20189C20.7338 6.78305 20.3923 6.33794 20.0853 5.87012C19.8417 5.49717 19.6394 5.0998 19.4816 4.68474C19.3819 4.42144 19.3172 4.14664 19.2889 3.86711C19.2623 3.61864 19.2866 3.36746 19.3603 3.12833C19.434 2.8892 19.5556 2.66695 19.718 2.47464L19.8053 2.37109C19.7762 2.37109 19.7616 2.37109 19.7435 2.37109C19.1826 2.6848 18.7005 3.11791 18.3326 3.6386C18.1 3.97004 17.9414 4.34601 17.8671 4.74186C17.8169 5.01041 17.8083 5.28486 17.8417 5.55592C17.9036 6.03464 18.0605 6.4968 18.3035 6.91626C18.5992 7.43883 18.9663 7.91933 19.3944 8.34443C19.8215 8.7781 20.2849 9.17582 20.7798 9.53338C21.2671 9.89043 21.7652 10.2475 22.2598 10.5867C22.7543 10.9259 23.2016 11.2615 23.6415 11.6578C24.0649 12.0151 24.4467 12.4175 24.7797 12.8575C25.0153 13.1758 25.2152 13.5182 25.376 13.8786C25.3872 13.9093 25.4005 13.9391 25.416 13.9679L25.4379 13.95Z" fill="#B98D58"/>
</svg>
