<svg width="41" height="40" viewBox="0 0 41 40" fill="none" xmlns="http://www.w3.org/2000/svg">
<ellipse cx="20.1691" cy="19.6261" rx="20.0445" ry="19.6261" fill="#B98D58"/>
<g clip-path="url(#clip0_331_5452)">
<path d="M30.8592 12.0633C30.0144 12.4258 29.1143 12.6661 28.1758 12.7827C29.1413 12.2188 29.8781 11.3327 30.2246 10.2647C29.3244 10.7897 28.3305 11.1605 27.2713 11.3674C26.4166 10.4772 25.1984 9.92578 23.8695 9.92578C21.2911 9.92578 19.2153 11.973 19.2153 14.4827C19.2153 14.8438 19.2465 15.1911 19.3232 15.5216C15.4513 15.3369 12.0253 13.5216 9.72377 10.7563C9.32196 11.4383 9.08627 12.2188 9.08627 13.0591C9.08627 14.6369 9.91687 16.0355 11.155 16.8452C10.4067 16.8313 9.67266 16.6188 9.05078 16.2841C9.05078 16.298 9.05078 16.3161 9.05078 16.3341C9.05078 18.548 10.6651 20.3869 12.7821 20.8105C12.403 20.9119 11.9898 20.9605 11.561 20.9605C11.2629 20.9605 10.9619 20.9438 10.6793 20.8827C11.2827 22.6869 12.995 24.0133 15.0311 24.0563C13.4465 25.2688 11.4347 25.9994 9.25665 25.9994C8.87472 25.9994 8.5084 25.9827 8.14209 25.9369C10.2051 27.2383 12.65 27.9813 15.2866 27.9813C23.8567 27.9813 28.5421 21.0369 28.5421 15.0174C28.5421 14.8161 28.535 14.6216 28.5251 14.4286C29.4494 13.7869 30.226 12.9855 30.8592 12.0633Z" fill="#E7E5EA"/>
</g>
<defs>
<clipPath id="clip0_331_5452">
<rect width="22.7171" height="22.2222" fill="white" transform="translate(8.14209 7.84277)"/>
</clipPath>
</defs>
</svg>
